<svg width="293" height="299" fill="none" xmlns="http://www.w3.org/2000/svg">
  <path
    d="m145.593 145.455.522.29.189.793-3.924 9.308c-.242-.245-.429-.478-.633-.754.345-.656.526-1.4.829-2.08l3.017-7.557ZM161.229 113.705l.823-.102c-.528 6.411-3.256 12.218-8.173 16.431-.257.22-.442.35-.752.496-1.822-.613-3.675-1.59-5.298-2.617l.192-.355c1.569.463 3.275 1.5 4.787 2.194.359-.211.667-.431.985-.702 4.025-3.441 7.019-10.141 7.436-15.345Z"
    fill="#010000" />
  <path
    d="m148.021 127.558-.119-.347 13.417-15.599-.09 2.093c-.417 5.204-3.411 11.904-7.436 15.345-.318.271-.626.491-.985.702-1.512-.694-3.218-1.731-4.787-2.194ZM145.593 145.455l3.033-7.387c1.06-2.473 2.092-5.779 4.414-7.296l.544-.397c5.095 2.656 7.961 9.515 9.581 14.746.865 2.796 1.131 5.497.839 8.405-.725-.84-1.22-2.18-1.775-3.165-1.418-2.517-2.826-4.682-3.861-7.401-.098 1.952-.015 5.164-1.329 6.713l-.203.256-.139.172c.655 2.534 2.663 4.751 2.937 7.464l-2.516-5.341c-1.074 3.709-2.427 7.79-4.323 11.156-.228.405-.551 1.194-.929 1.453l-.074-.194c-.896-2.295-2.053-4.429-2.897-6.756-.198-.546-.015-.994.132-1.534.325-1.195 1.519-3.911 1.268-5.073-.15-.694-1.137-1.882-1.495-2.608-.689-1.402-1.319-2.877-1.8-4.365-.203.759-.386 1.512-.696 2.235l-.189-.793-.522-.29Z"
    fill="#0C0C0C" />
  <path fill-rule="evenodd" clip-rule="evenodd"
    d="m127.255 115.244 20.574 12.669.192-.355-.119-.347 13.417-15.599-.09 2.093.823-.102c.004-.175.003-.363.001-.558-.005-.681-.01-1.443.215-2.013.349-.882.264-2.11.189-3.185-.021-.301-.041-.59-.051-.856l5.411 1.489c2.825.552 6.162.468 8.599-1.229 1.09-.759 2.019-2.011 2.426-3.275.219-.675.342-1.401.415-2.106.078-.742.111-1.492.144-2.2423.057-1.3313.115-2.6653.429-3.9617.254-1.0544.614-2.0814.974-3.1084.452-1.2889.904-2.578 1.147-3.9218l.044-.2586c.123-.6773.151-1.121-.007-1.7989l-.205-.9775v-.0009c.091-.375.165-.753.239-1.1307.151-.7702.301-1.5388.596-2.2766.173-.4316.389-.8569.605-1.2832.309-.6101.62-1.2223.807-1.858.124-.4207.176-.8591.229-1.2976.043-.3615.086-.7231.17-1.0749.181-.7629.389-1.5074.595-2.2475.475-1.6978.942-3.3726 1.065-5.1943.132-1.9409-.098-3.951-.382-5.8702-.028-.1905-.1-.4682-.178-.7676-.138-.5324-.295-1.1333-.252-1.4332.011-.0781.205-.3537.345-.5521.056-.0799.104-.1472.127-.1841.613-.9807.847-1.4487.852-2.6496-.212-.0978-.437-.1658-.67-.2143.233.0485.458.1165.671.2143l.237-.2414c.738-.8789 1.932-3.0554 2.483-5.159.2-1.7945-.167-3.9096-.53-6.0087-.22-1.2704-.439-2.535-.531-3.7191.309-.2393.63-.4754.953-.7131.779-.5728 1.57-1.155 2.239-1.8155 2.076-2.0517 3.58-5.2822 3.911-8.1722.341-2.9758-.53-6.0688-2.442-8.3788-1.276-1.541-2.618-2.2424-4.527-2.7617-.107-.0291-.146-.0292-.163-.0485-.021-.0229-.011-.0727-.048-.2291 1.3-4.2186 1.46-8.2326-.641-12.2653-1.706-3.2737-4.302-4.2197-7.823-4.7526-.96 2.1333-2.881 2.905-4.649 3.0054-2.469.1401-5.332-1.019-7.906-2.0612-.851-.3446-1.67-.6764-2.434-.9442-10.488-3.6817-24.172-6.5626-32.804 2.6147-.732.7782-1.413 1.634-1.998 2.5278-.086.1303-.207.3505-.345.6024-.329.5981-.755 1.3746-1.035 1.5479-.282.1751-1.083.2474-1.778.3103-.383.0346-.735.0664-.95.1109-1.735.3592-3.333 1.0916-4.869 1.9591-10.754 6.0734-12.81 19.6234-12.376 30.9213.48 12.4972 5.18 23.7255 11.242 34.4718.26.46.526.9706.802 1.5012.85 1.6313 1.797 3.4508 2.957 4.5643.503.482 1.065.7656 1.712.9999.205.7056.098 1.7075.003 2.587-.033.3069-.064.599-.08.8583-.273 4.4459-.673 9.0109-1.537 13.3828l-.174.01-.289.029-.196.014c-1.114.106-2.118.831-2.791 1.698-.588.755-1.058 1.662-.932 2.645.404 3.17 4.411 5.927 7.128 7.796.296.203.575.395.834.577Zm57.268-57.8127Zm-4.984 1.8737-.257-.1196.018-1.087c.018-.2806-.025-.3404-.137-.4986a3.0052 3.0052 0 0 1-.098-.1422c0 .0001-.001.0002-.001.0004.038.0567.07.1023.098.1418.113.1582.156.218.138.4986l-.018 1.087.257.1197v-.0001Z"
    fill="#0C0C0C" />
  <path
    d="m151.618 277.164 4.747-.002c.383 0 1.284-.108 1.601 0 .132.045.212.182.318.273l-.096.285-4.937.053c-.549-.006-1.309.101-1.772-.206l.139-.403Z"
    fill="#010000" />
  <path
    d="M148.249 267.613c1.147.806 2.459.594 3.822.606l5.753.035c-.401.321-1.13.19-1.653.191l-5.061.007c.121.347.146.298.434.486-.997.024-2.128-.066-3.077.256-.288.463-.234.695-.239 1.232l-.162-.182c-.087-.405-.145-.573-.007-.975.184-.541.171-1.089.19-1.656ZM170.206 288.007l5.503.018c.844.003 1.861-.105 2.687.022l-.232.203-4.958.036-.224.37c.521.346 1.729.196 2.379.201l6.599.005c.966-.004 2.235-.172 3.14.095-1.735.267-3.625.14-5.382.147l-9.638-.035.33-.575-.204-.487Z"
    fill="#161515" />
  <path
    d="m175.732 256.468 5.015-.081c1.726.475 3.944.212 5.741.202l-.071.249c-.586.259-1.242.123-1.857.243-1.054.183-2.388.028-3.47.019l-8.078-.076-.047-.186-.819-.061-.094-.188 3.464-.095.216-.026ZM157.448 273.227c.768-.021 2.085-.215 2.807-.062.565.042 1.142-.023 1.619.292-.073.083-.35.35-.354.455l-11.307-.005-.093-.208-1.699-.054.185-.238c.717-.164 1.398-.046 2.123-.016 1.012.042 6.205.311 6.719-.164Z"
    fill="#010000" />
  <path
    d="m182.391 238.402 6.09.118c-.11.305-.122.606-.409.774l-4.319-.188c-.076-.137-.035-.334-.034-.489-.48-.011-.949.092-1.328-.215Z"
    fill="#161515" />
  <path fill-rule="evenodd" clip-rule="evenodd"
    d="m108.377 116.367-2.584 2.435c-1.553 1.447-3.016 2.137-4.766 2.962-.484.229-.991.468-1.527.736l-29.3682 13.146-8.3277 5.629c-.1646.123-.3325.247-.502.372-1.0501.776-2.1642 1.599-2.969 2.594-1.9228 2.379-2.6964 5.777-3.371 8.74l-.1127.494-2.0351 10.497-5.568 35.45-5.6276 41.372-2.4967 19.292c-.6292 5.173-1.2406 10.46-1.0697 15.68.178 5.425 1.3405 10.667 4.2756 15.297 2.3699 3.739 6.0092 6.941 10.1747 8.51 4.9726 1.873 10.2934 3.085 15.5185 4.275.9964.226 1.9893.453 2.9756.682l32.5033 8.16 3.821 6.822c.241.048.554.085.891.125.722.085 1.549.183 1.979.432l-.136 5.141-109.858.046L0 333.452l292.98-.049.02-8.12-62.521-.485c3.512-3.543 4.136-8.984 3.512-14.122l6.888-14.447 5.713-13.795c.273-.699.551-1.4.83-2.103 2.189-5.512 4.43-11.156 4.578-17.137.104-4.243-1.064-8.422-2.209-12.513-.208-.746-.416-1.49-.615-2.23l-2.733-10.256-6.573-23.736-12.174-43.074c-.589-2.069-1.168-4.146-1.747-6.227-2.29-8.221-4.593-16.489-7.616-24.44l-.002-.005c-.672-1.767-1.445-3.801-2.924-5.067-1.708-1.462-3.929-2.484-6.077-3.472-.846-.389-1.68-.773-2.467-1.176l-33.758-10.264 15.149 23.781-6.559 6.468-.494-.394c.509-.536 1.049-1.075 1.597-1.621 1.508-1.503 3.071-3.062 4.174-4.765-2.707-3.84-5.097-7.866-7.489-11.893-1.421-2.395-2.843-4.79-4.332-7.147-.342-.54-.668-1.098-.996-1.657-.618-1.055-1.239-2.117-1.967-3.073-2.312-3.04-4.909-5.952-8.327-7.719.05 1.422.293 2.682.547 3.994.094.487.19.981.277 1.494l1.19 8.31 1.84 18.582c.221 1.979.523 3.952.825 5.926.402 2.628.804 5.256 1.014 7.898.317 3.985.231 7.963.099 11.955-.342 10.342-1.855 20.733-5.354 30.506l-3.603 8.785c-.037.08-.074.16-.112.24-.75 1.61-1.537 3.299-2.653 4.684-4.592-4.869-7.98-11.013-11.197-16.848l-.099-.179c-7.934-14.392-14.326-29.259-19.839-44.73l-6.632-19.742 21.585 23.51.631-1.253c-.242-.245-.429-.478-.633-.754-.332-.222-.658-.655-.957-1.052-.133-.177-.261-.347-.382-.489l-3.546-4.039c-1.772-1.966-3.607-3.891-5.443-5.818-3.893-4.085-7.795-8.18-11.135-12.696-.866-1.171-1.337-2.228-1.777-3.607-1.433-4.485-3.064-10.115-2.484-14.826.191-1.546.998-3.447 1.728-4.825l.145-.271-2.76 1.78c-.747.552-1.392 1.273-2.02 1.976-.156.175-.311.348-.466.517l-4.273 4.625Zm-3.94 3.995-.77.488v1.281c.003 1.424-.106 2.868-.216 4.311-.08 1.066-.161 2.131-.196 3.188l-.245 18.22c.001.603-.024 1.253-.049 1.922-.063 1.66-.131 3.434.187 4.884l8.033 3.183 3.968 1.349c.202.062.402.112.601.162.549.137 1.077.269 1.553.629l-7.621 5.304c-.422.299-.862.595-1.307.894-1.216.818-2.467 1.659-3.474 2.652l.004.324.814.784.528-.207-.529.207-.004.022 3.852 5.569c4.08 6.134 39.421 58.947 41.171 59.791-.863-1.192-1.661-2.49-2.454-3.78l-.001-.001c-.483-.787-.965-1.571-1.46-2.327l-8.459-12.763-22.329-33.007-5.997-8.912-2.6-3.76c-.064-.093-.134-.189-.204-.287-.313-.432-.66-.91-.735-1.413l-.027-.277 11.812-8.954-.455-.302c-1.297-.665-2.733-1.162-4.154-1.654-.704-.244-1.404-.486-2.081-.747-.837-.322-1.672-.67-2.51-1.019-1.643-.684-3.294-1.372-4.974-1.873l.328-33.881ZM90.4423 225.367h.0002l-1.0831 6.854c-.0739.419-.1496.834-.2249 1.248-.4134 2.271-.8167 4.485-.8455 6.828h.0002c.6093 3.708-.7121 9.705-1.9587 15.363-.9119 4.138-1.7837 8.094-1.8305 10.84-.3231 1.938 1.2326 2.174 3.263 2.481 1.112.168 2.3663.358 3.5324.861-.6351.353-1.1817.464-1.8853.279l-6.0559-1.7c.7395-2.864 1.1387-5.782 1.5386-8.705l.0006-.004c.0718-.525.1436-1.05.2174-1.574l2.6861-20.791h-.0002c-.1436-.678.0856-1.771.2873-2.733.0932-.444.1804-.861.2223-1.195l1.3468-10.15-.0001-.001 1.2003-12.709c.6056-10.163-.0538-20.541-2.3865-30.465-.5032-2.141-1.152-4.247-1.8004-6.353-.3488-1.132-.6975-2.265-1.0233-3.401 2.3007 4.207 3.6687 8.892 4.7198 13.551.968 4.294 1.7054 8.528 1.9973 12.922.6389 9.636-.482 19.043-1.9179 28.554Zm86.3697 8.198.11-.004c1.151-.033 2.24-.064 3.38.169.391.325.602.904.79 1.42v.002c.045.121.087.239.131.349l-2.936.146-4.406.09c.309-.232.608-.484.908-.737l.001-.001c.638-.538 1.28-1.079 2.022-1.434Zm33.694 53.034c.006.002.012.004.017.006l.012.005c.021.008.035.016.046.026.02.019.031.046.054.1v.001c.015.037.037.088.07.158l-.468.248c-2.645-.164-5.304-.07-7.956.023h-.002c-.79.028-1.578.056-2.365.077-.255.007-.586.031-.955.057-1.19.086-2.779.2-3.505-.133-.109-.05-.19-.142-.271-.233-.04-.046-.081-.091-.124-.132l.164-.354 1.283-.29 2.61-17.597 6.573.008 1.798 11.839c.024.125.048.25.072.377.024.128.048.257.072.386.314 1.67.645 3.43 1.308 4.959.419.241.816.305 1.275.379l.085.014c.043.017.079.031.109.042l.029.01.027.01.017.005c.009.004.017.006.025.009Zm-9.35-25.831c-.384.027-.713.051-.952.061-1.267.118-1.813.208-2.708 1.135l.137.259 6.799-.038c.166-.007.335-.006.504-.005.612.004 1.221.007 1.676-.401l-.058-.775c-.817-.561-3.668-.359-5.398-.236Zm-27.399-9.376 9.047-.059c.667.034 1.062.139 1.526.622l-.229.307-1.33.099-7.382.119c-.25 0-.515.008-.788.015l-.001.001c-.864.025-1.803.052-2.561-.156l-.159-.385c.474-.451.988-.491 1.587-.538.095-.008.191-.015.29-.025Zm1.542 1.667h.006c.766.02 1.534.041 2.309.037l4.543-.133c.115-.004.233-.009.351-.014.865-.037 1.794-.076 2.52.383v.597c-.239.099-.401.122-.662.128l-9.548.048c-.155 0-.359.007-.591.014-.884.03-2.166.072-2.637-.229-.097-.063-.177-.147-.257-.231-.041-.043-.082-.086-.125-.125l.283-.466c1.282-.076 2.543-.042 3.808-.009Zm22.548 9.767 6.568.005c.168.002.351-.001.542-.003 1.014-.011 2.278-.026 3.055.436.004.043.008.084.013.122l.008.076c.041.363.06.526-.141.912l-.667.092-7.368-.07c-.088-.002-.182-.003-.282-.004h-.21c-.793-.002-1.822-.004-2.379-.328-.029-.017-.055-.031-.077-.044h-.002c-.086-.049-.123-.071-.144-.103-.015-.026-.02-.058-.029-.115l-.001-.001a1.422 1.422 0 0 0-.015-.092c-.005-.029-.012-.062-.02-.1a1.0547 1.0547 0 0 1-.006-.026c.387-.479.535-.532 1.04-.715l.115-.042Zm-49.511 4.264-.087.523c.939.66 1.988.638 3.086.614.243-.005.489-.01.736-.008l5.752.035c.169-.004.392.001.644.007H158.487c.963.02 2.343.048 2.816-.31.01-.082.021-.153.031-.217.05-.331.071-.466-.143-.826-1.389-.364-3.082-.308-4.654-.256-.521.018-1.029.035-1.508.036-.444.001-.95-.019-1.487-.039-1.775-.067-3.885-.146-5.206.441Zm-57.5755 3.772.0307-.011.0397-.014c.1388-.05.2185-.079.411-.075.6292.012 1.3861.217 2.1011.411.3579.097.7053.192 1.0209.258l16.4441 3.94c.229.066.508.134.813.208h.001c1.089.264 2.495.606 3.021 1.214-1.678.656-21.0908-4.863-23.8825-5.931Zm63.2885-1.941c-.864.014-1.708.029-2.505.017-.215.005-.436.005-.661.005h-.001c-.815-.001-1.671-.001-2.415.251-.244.392-.242.619-.24 1.005v.001c.001.07.001.144 0 .226.038.021.07.039.098.055.014.009.027.016.039.024.012.007.022.013.032.019.11.067.136.083.32.101 1.25.122 2.555.074 3.852.027.819-.03 1.635-.06 2.432-.047l4.506.202c.097 0 .221.005.357.01.369.015.827.033 1.069-.042.093-.029.162-.103.23-.178.018-.019.035-.038.053-.056a.813.813 0 0 1 .052-.05c.007-.045.014-.088.022-.129.009-.051.018-.098.027-.143.066-.332.104-.525-.143-.881-2.155-.502-4.72-.458-7.124-.417Zm3.399 4.306c-.319-.005-.893-.004-1.618-.002-3.059.009-8.802.025-9.435-.417a3.2634 3.2634 0 0 0-.045-.228c-.014-.064-.022-.099-.016-.132.008-.039.036-.074.099-.152l.043-.054.035-.043c.5-.637 1.442-.686 2.235-.727l.208-.012.04-.002.061-.004c2.793-.188 5.603-.12 8.4-.053l.32.008c.316.008.653.003.999-.002.795-.011 1.631-.023 2.343.114.457.089.958.333 1.288.664l.124.159-.157.371c-.711.219-1.377.365-2.117.45-.503-.106-1.295-.045-1.989.01-.302.023-.585.045-.818.052Zm41.403 13.039c-.191.002-.387.012-.584.022h.001c.196-.01.392-.02.583-.022Zm-25.025-29.836c.8-.007 1.513-.014 1.906.038l5.015-.081c.44.001.947.026 1.482.052 1.45.071 3.109.153 4.209-.22l.029-.298c-.139-.097-.272-.172-.413-.252a3.5545 3.5545 0 0 1-.1-.057c-.252-.143-.404-.367-.561-.598l-.036-.053c-.019-.029-.039-.057-.059-.086-1.288-.31-2.727-.271-4.104-.234h-.008c-.395.011-.785.022-1.164.024l-9.545.169c-.412.314-.495.63-.615 1.081l-.017.064-.014.054c.471.428 2.405.411 3.995.397Zm22.892 8.658c1.6-.113 3.239-.087 4.865-.06.653.011 1.305.021 1.951.023.435.001.89-.01 1.355-.021H204.899c1.521-.037 3.146-.076 4.526.287.895.235 1.22.8 1.614 1.486.085.149.174.302.272.46l-2.852.193-10.786-.024c-.262-.001-.583.013-.929.028h-.001c-.914.039-2.002.087-2.632-.114-.089-.029-.151-.103-.213-.178-.031-.037-.062-.074-.096-.106.043-.392.085-.628.316-.962.547-.788 1.678-.911 2.554-1.007l.046-.005Zm-22.85-26.664 8.523-.022c.296.24.647.229 1.015.218h.001l.146-.003c.055-.001.111-.002.166 0 0 .038-.003.078-.006.119v.001c-.008.128-.017.265.041.369l4.318.188c.22-.129.278-.334.343-.56.02-.07.04-.142.066-.214l.315-.374-.153-.376c-.833-.33-1.678-.438-2.529-.546-.515-.066-1.031-.132-1.549-.247-.415-.093-.812-.228-1.208-.363-.635-.216-1.268-.431-1.964-.47-3.6-.196-7.452.112-10.988.746-.242.044-.476.078-.702.111l-.001.001h-.001c-.97.142-1.812.266-2.652.992l.129.283c1.75.288 3.568.234 5.357.181.447-.013.892-.026 1.333-.034Zm-18.448 5.005.083-.033c.545-.086.917-.086 1.401.157.137.668-.106 1.399-.33 2.073v.001c-.054.162-.106.321-.152.475l2.432.337c.17.785.167 1.976-.239 2.647-.527.152-1.045.097-1.577.04h-.003c-.091-.01-.182-.019-.274-.028-.428.208-.363.802-.293 1.433.063.574.13 1.178-.17 1.548l-1.807.028-1.066-.036c-.301-.45-.212-1.584-.147-2.413.018-.229.034-.434.04-.595l-2.897-.12c-.002-.043-.005-.087-.007-.133-.002-.03-.003-.06-.005-.092-.043-.781-.102-1.859.328-2.407l1.929.187-.005-3.023 2.759-.046Zm6.1 30.483.682.046c.93.129 2.029 1.037 2.568 1.762l.001.001c.287.387.337.453.258.904-.696.286-1.434.286-2.175.286-.147 0-.294 0-.441.002l-4.2.027c-1.215.002-2.455.027-3.705.052H154.498c-3.649.072-7.391.146-10.894-.331l1.125-1.43c.312-.337.929-.954 1.35-1.118.767-.299 2.102-.258 3.185-.224.353.01.679.02.949.018l11.307.005Zm19.57-16.812-8.078-.076c-.264.003-.613-.016-.992-.036h-.001c-.866-.046-1.888-.101-2.419.074-.267.088-.924.805-1.342 1.26-.117.127-.215.234-.28.301-.23.234-.338.438-.441.747l.145.371c.983.361 2.174.378 3.285.393h.002c.316.005.626.009.922.021l10.936.113c.435-.005.924.01 1.437.025 1.553.047 3.331.101 4.528-.367l.212-.371c-.463-.894-1.26-1.769-2.107-2.317l-2.337-.157c-.746.129-1.631.09-2.469.052-.346-.015-.685-.03-1.001-.033Zm-3.927-36.145c.054-.015.082-.023.11-.024.03-.002.061.004.125.016.038.007.088.016.157.028.135.022.21.036.259.045l.001.001c.034.006.056.01.079.013.037.006.075.008.179.015l.075.004c.937.059 1.492.523 2.142 1.067.136.114.275.23.423.347-.428.987-.721 1.687-.628 2.797.434.381 1.553.319 2.386.273.22-.012.421-.023.584-.025l-.015 3.312-3.082-.111c-.003.317 0 .64.003.967v.002c.009.926.018 1.878-.123 2.76l-.556.137-3.119-.172.274-3.51-3.171-.038-.089-3.542 3.304.259-.075-.776c-.06-.832-.105-1.388-.507-2.139l-.098-.178.107-.37c.347-.074.64-.166.964-.307l.121-.805c.077-.019.13-.034.169-.046h.001Zm24.313 24.142.976-.088c.595.023 1.217.45 1.558.922.236.327.316.706.252 1.1-.105.64-.538 1.125-1.041 1.495l-.131.093c.466.356 1.036.572 1.619.795.65.248 1.318.502 1.881.962 1.317 1.077 1.911 2.918 1.996 4.57.072 1.393-.727 3.329-1.711 4.345-.669.691-1.713.735-2.637.773l-.002.001h-.003l-.169.007-.051.002-.073.004-.052.003-5.37.021-.04-.036c-.418-.378-.847-.765-1.186-1.218-1.224-1.632-1.625-3.595-1.24-5.595.288-1.494 2.098-3.452 3.434-4.183.198-.108.397-.186.596-.264h.001c.261-.102.522-.204.774-.372-.447-.881-.569-1.237-.491-2.225.326-.601.514-.774 1.11-1.112Zm-17.723-5.991 4.319.188c-2.239 3.41-3.835 7.658-4.777 11.6l-7.216-.003c-.27-.008-.549-.009-.833-.01-.813-.003-1.659-.007-2.418-.169-1.109-4.123-2.988-7.937-5.177-11.582l16.102-.024Zm-28.888 13.722-.599.023c-.153.018-.334.03-.528.044-.539.037-1.174.08-1.548.259-.367.175-.858.819-1.243 1.323v.001c-.135.177-.256.336-.355.452-.016.019-.05.063-.093.118l-.001.002c-.132.171-.351.454-.415.481-.256.108-.7.146-1.092.179-.185.016-.358.031-.495.051l-4.012.568 4.912 9.775 6.207-.064 5.234-.041c.351-1.206.895-2.285 1.449-3.383.169-.337.34-.675.506-1.02l2.27-5.259-6.506-.86c.073-.663.043-.893-.405-1.411-.96-1.114-1.875-1.233-3.286-1.238Zm36.39 44.414c-.099-.104-.198-.208-.295-.309-.484-.501-.596-.618-.665-1.326.431-1.197 1.445-2.017 2.459-2.836.912-.737 1.822-1.472 2.305-2.482.308-.645.375-1.42.436-2.145.01-.117.02-.233.031-.347l14.46.002c.095 1.49.197 2.772 1.357 3.83.448.409 1.031.793 1.635 1.191 1.506.991 3.149 2.073 3.206 3.87.023.749-.459 1.626-.893 2.207-.837.388-1.769.421-2.697.455-.534.019-1.067.038-1.58.124-1.016-.211-2.348-.139-3.581-.073-.555.03-1.09.059-1.567.061l-12.228-.169c-.89-.484-1.667-1.3-2.383-2.052v-.001Zm-21.094-9.418c.013.051.029.109.045.183l5.503.017c.266.001.549-.008.838-.019.628-.022 1.283-.045 1.849.042.956-.023 1.941.003 2.931.03 1.715.046 3.446.092 5.075-.115l.039-.233-.722-.332c-1.829-2.097-3.458-22.092-3.648-26.005l-8.047.137c-.45 6.214-.947 12.331-1.93 18.488-.053.33-.104.674-.157 1.027-.315 2.112-.679 4.55-1.702 6.288-.142.242-.123.312-.074.492Zm-24.785 13.611c-.019-.05-.029-.074-.028-.098 0-.023.01-.045.028-.09.016-.037.038-.09.067-.172l1.758-.676c.533-1.172.85-2.578 1.145-3.887.061-.268.12-.531.18-.788 1.361-5.799 1.902-11.759 2.269-17.692l8.341-.048c.01 4.825.807 9.665 1.69 14.398.067.362.133.733.199 1.11.466 2.632.98 5.534 2.536 7.637l.127-.142c.245-2.109 1.613-3.701 2.973-5.283.677-.788 1.353-1.574 1.886-2.421.861-1.368 1.234-2.638 1.533-4.214l9.638.035c.442-.001.893.005 1.347.012 1.351.02 2.736.041 4.035-.159l.758.07c.207.349.248.774.289 1.196.021.224.043.447.089.657.15.689.461 1.414.777 2.042.57 1.131 1.741 2.617 2.621 3.545.296.313.601.592.903.868.481.439.955.873 1.38 1.429 3.167 5.382-.354 5.382-2.595 5.382h-8.996c-1.224-.001-2.51.049-3.818.1-3.372.131-6.897.269-9.923-.445-.473-.313-.598-.651-.778-1.135l-.041-.111-.248-.663-.089-.248c-.939-.132-2.04-.073-3.1-.017h-.001l-.003.001c-.542.029-1.074.057-1.567.059l-12.364-.054-2.97-.07c-.02-.056-.036-.097-.048-.128Zm-21.534-23.113c-1.377-.303-3.228-.71-4.118-.416-5.405 3.467-8.62 11.169-9.947 17.211-1.41 6.428-1.6 14.11 1.404 20.125l15.46 1.997.238-.409-.012-.045c-.574-2.166-1.139-4.298-1.384-6.533-.783-7.149.641-15.596 4.238-21.885 1.811-3.168 3.869-5.902 7.156-7.65-2.804-.664-5.672-1.132-8.531-1.599h-.001c-1.147-.187-2.294-.375-3.434-.574-.288-.05-.658-.132-1.069-.222Zm68.114-116.025-.413 4.298c.037-.063.074-.128.11-.194.134-.239.27-.482.471-.664-.201.182-.337.425-.471.665-.036.065-.072.13-.11.194l-6.129 33.278-2.166 9.82c-.178.746-.378 1.504-.579 2.269l-.001.002c-.546 2.073-1.105 4.195-1.284 6.269.631-.997.984-2.216 1.321-3.385.086-.296.171-.589.259-.874 1.414-4.578 2.465-9.242 3.518-13.913v-.001l.04-.177c.106-.471.213-.94.321-1.409l.002-.01c.515-2.249 1.026-4.479 1.36-6.77l4.157-24.493v-.001c.443-1.459.606-3.213.753-4.781v-.001c.018-.195.036-.387.054-.576l-14.216-8.013c.832-1.058 1.749-1.942 2.742-2.847l-.494-.394-3.238 3.215 3.196 2.127c.359.218 1.429.83 2.764 1.594l.001.001c3.199 1.829 7.918 4.529 8.032 4.771Z"
    fill="#0C0C0C" />
</svg>